<svg width="104" height="66" viewBox="0 0 104 66" fill="none" xmlns="http://www.w3.org/2000/svg">
<path d="M57.1934 0H46.7079V65.9407H57.1934V0Z" fill="#F10002"/>
<path d="M103.901 27.3184H0.00012207V38.6225H103.901V27.3184Z" fill="#F10002"/>
<path d="M11.4387 0L44.8015 23.5502V0H11.4387Z" fill="#092C70"/>
<path d="M0.00012207 5.65234V25.4345H29.5501L0.00012207 5.65234Z" fill="#092C70"/>
<path d="M0.00012207 0V2.82603L34.3162 25.4343H39.0823L0.00012207 0Z" fill="#F10002"/>
<path d="M92.4628 0L59.0999 23.5502V0H92.4628Z" fill="#092C70"/>
<path d="M103.901 5.65234V25.4345H74.3515L103.901 5.65234Z" fill="#092C70"/>
<path d="M103.901 0V2.82603L69.5854 25.4343H64.8193L103.901 0Z" fill="#F10002"/>
<path d="M92.4628 65.9409L59.0999 42.3907V65.9409H92.4628Z" fill="#092C70"/>
<path d="M103.901 60.2891V40.5069H74.3515L103.901 60.2891Z" fill="#092C70"/>
<path d="M103.901 65.9409V63.1149L69.5854 40.5067H64.8193L103.901 65.9409Z" fill="#F10002"/>
<path d="M33.3629 40.5063L2.67029e-05 64.0566V40.5063H33.3629Z" fill="#092C70"/>
<path d="M44.8016 46.1582V65.9404H15.2516L44.8016 46.1582Z" fill="#092C70"/>
<path d="M44.8016 40.5063V43.3324L10.4855 65.9406H5.71941L44.8016 40.5063Z" fill="#F10002"/>
</svg>
