<?xml version="1.0" encoding="UTF-8"?>
<!DOCTYPE svg PUBLIC "-//W3C//DTD SVG 1.1//EN" "http://www.w3.org/Graphics/SVG/1.1/DTD/svg11.dtd">
<svg xmlns="http://www.w3.org/2000/svg" version="1.1" width="3106px" height="837px" style="shape-rendering:geometricPrecision; text-rendering:geometricPrecision; image-rendering:optimizeQuality; fill-rule:evenodd; clip-rule:evenodd" xmlns:xlink="http://www.w3.org/1999/xlink">
<g><path style="opacity:0.984" fill="#94077f" d="M 2599.5,-0.5 C 2604.83,-0.5 2610.17,-0.5 2615.5,-0.5C 2636.13,1.07845 2655.8,6.57845 2674.5,16C 2689.27,25.9473 2700.27,39.114 2707.5,55.5C 2715.5,51.5044 2723.16,47.0044 2730.5,42C 2742.61,31.1149 2755.61,21.4482 2769.5,13C 2792.35,5.50672 2811.85,10.6734 2828,28.5C 2833.51,37.377 2836.85,47.0437 2838,57.5C 2838.33,68.1667 2838.67,78.8333 2839,89.5C 2858.24,80.1965 2878.41,73.6965 2899.5,70C 2936.09,66.9856 2970.76,73.6522 3003.5,90C 3009.92,93.7487 3015.75,98.2487 3021,103.5C 3033.97,97.6513 3043.64,100.985 3050,113.5C 3053.27,129.806 3047.1,140.639 3031.5,146C 3018.97,147.812 3010.8,142.645 3007,130.5C 3006.22,127.24 3006.38,124.073 3007.5,121C 2981.32,120.68 2959.15,129.847 2941,148.5C 2937.94,152.569 2935.27,156.902 2933,161.5C 2931.53,166.735 2933.03,170.901 2937.5,174C 2945.63,178.047 2953.97,181.714 2962.5,185C 2984.47,201.694 2997.31,223.86 3001,251.5C 3003.69,274.209 3000.19,295.876 2990.5,316.5C 3004.34,329.391 3005.01,342.891 2992.5,357C 2980.82,363.846 2969.99,362.679 2960,353.5C 2951.53,340.41 2953.03,328.577 2964.5,318C 2966.65,316.589 2968.98,315.755 2971.5,315.5C 2969.22,305.937 2965.05,297.27 2959,289.5C 2944.78,270.602 2926.28,258.102 2903.5,252C 2894.92,249.797 2887.76,251.963 2882,258.5C 2880.54,269.869 2882.2,280.869 2887,291.5C 2889.86,300.901 2894.53,309.235 2901,316.5C 2903.82,309.028 2908.15,307.695 2914,312.5C 2914.67,314.5 2914.67,316.5 2914,318.5C 2911.27,324.954 2908.27,331.288 2905,337.5C 2896.93,350.107 2885.43,354.941 2870.5,352C 2866.83,350.722 2863.17,349.556 2859.5,348.5C 2858.31,357.881 2855.14,366.548 2850,374.5C 2846.33,378.5 2842.67,378.5 2839,374.5C 2838.67,371.167 2838.33,367.833 2838,364.5C 2834,361.332 2829.67,358.665 2825,356.5C 2822.6,359.4 2819.77,361.733 2816.5,363.5C 2816.4,386.746 2823.23,407.746 2837,426.5C 2859.67,422.85 2882.5,420.683 2905.5,420C 2906.42,420.374 2907.25,420.874 2908,421.5C 2908.61,430.578 2908.61,439.578 2908,448.5C 2962.14,446.921 3015.98,450.754 3069.5,460C 3081.78,462.237 3093.78,465.404 3105.5,469.5C 3105.5,470.167 3105.5,470.833 3105.5,471.5C 3098.81,502.414 3088.97,532.414 3076,561.5C 3072.5,569.182 3068.5,576.515 3064,583.5C 3013.42,541.968 2955.59,516.968 2890.5,508.5C 2884.08,521 2877.25,533 2870,544.5C 2889.41,560.786 2908.91,576.953 2928.5,593C 2955.26,618.909 2979.59,646.742 3001.5,676.5C 2961.81,721.712 2915.31,758.046 2862,785.5C 2853.97,768.411 2847.3,750.744 2842,732.5C 2830.51,687.027 2818.51,641.694 2806,596.5C 2805.59,596.043 2805.09,595.709 2804.5,595.5C 2791.47,600.09 2778.14,603.423 2764.5,605.5C 2759.04,623.728 2753.87,642.061 2749,660.5C 2744.44,684.661 2741.1,708.994 2739,733.5C 2737.92,762.831 2736.92,792.164 2736,821.5C 2735.82,824.226 2735.32,826.893 2734.5,829.5C 2714.76,832.359 2695.1,834.692 2675.5,836.5C 2657.83,836.5 2640.17,836.5 2622.5,836.5C 2598.11,834.575 2573.78,831.242 2549.5,826.5C 2553.52,811.615 2559.02,797.282 2566,783.5C 2599.67,716.537 2641.17,655.037 2690.5,599C 2678.9,594.783 2667.73,589.616 2657,583.5C 2629.42,602.372 2601.59,620.872 2573.5,639C 2566.24,644.26 2559.57,650.26 2553.5,657C 2558.47,666.581 2557.8,675.914 2551.5,685C 2558.19,698.731 2564.69,712.564 2571,726.5C 2571.5,738.514 2565.66,745.181 2553.5,746.5C 2550.73,745.974 2548.06,745.141 2545.5,744C 2539.29,732.729 2533.46,721.229 2528,709.5C 2514.99,718.509 2501.32,726.509 2487,733.5C 2481.42,741.664 2476.08,749.997 2471,758.5C 2472.5,794.664 2455.34,810.164 2419.5,805C 2372.5,794.329 2345,765.162 2337,717.5C 2329.53,711.032 2322.36,704.198 2315.5,697C 2333.88,664.284 2360.22,640.284 2394.5,625C 2401.79,622.069 2409.13,619.235 2416.5,616.5C 2422.69,591.64 2438.36,576.64 2463.5,571.5C 2457.17,558.167 2450.83,544.833 2444.5,531.5C 2406.44,534.681 2369.78,543.848 2334.5,559C 2304.56,575.096 2277.89,595.596 2254.5,620.5C 2237.87,593.081 2223.21,564.581 2210.5,535C 2270.76,489.969 2338.76,467.803 2414.5,468.5C 2401.71,439.595 2388.38,410.928 2374.5,382.5C 2364.7,379.188 2356.03,374.022 2348.5,367C 2346.95,365.711 2345.28,365.044 2343.5,365C 2328.78,374.714 2318.11,387.714 2311.5,404C 2318.34,411.006 2317.68,417.339 2309.5,423C 2299,425.158 2294.17,420.992 2295,410.5C 2295.78,408.714 2296.95,407.214 2298.5,406C 2294.03,386.145 2297.03,367.478 2307.5,350C 2295.05,344.992 2282.39,344.326 2269.5,348C 2266.02,355.077 2260.69,357.077 2253.5,354C 2249.7,349.909 2248.53,345.076 2250,339.5C 2252.21,335.308 2255.71,332.975 2260.5,332.5C 2262.76,333.648 2265.09,334.148 2267.5,334C 2278.61,318.547 2293.28,308.214 2311.5,303C 2299.85,292.164 2286.52,283.831 2271.5,278C 2267.9,278.777 2264.24,279.61 2260.5,280.5C 2254.21,280.213 2250.88,276.88 2250.5,270.5C 2252.01,260.951 2257.35,257.784 2266.5,261C 2268.17,262 2269.5,263.333 2270.5,265C 2285.33,264.481 2300.16,263.647 2315,262.5C 2322.5,263.197 2330,263.864 2337.5,264.5C 2335.23,237.933 2341.56,213.6 2356.5,191.5C 2352.38,182.073 2355.38,176.406 2365.5,174.5C 2372.76,175.921 2375.93,180.255 2375,187.5C 2373,190.833 2370.33,193.5 2367,195.5C 2366.82,208.632 2370.49,220.632 2378,231.5C 2386.39,223.55 2396.23,218.05 2407.5,215C 2413.75,213.283 2420.09,211.95 2426.5,211C 2429.07,210.099 2431.4,208.766 2433.5,207C 2445.77,206.03 2449.27,211.197 2444,222.5C 2439.33,225.167 2434.67,225.167 2430,222.5C 2416.44,237.524 2409.77,255.19 2410,275.5C 2420.79,285.951 2430.46,297.285 2439,309.5C 2444.91,317.922 2444.74,326.089 2438.5,334C 2433.39,336.027 2428.23,336.86 2423,336.5C 2422.5,339.518 2422.67,342.518 2423.5,345.5C 2423.32,348.191 2422.32,350.525 2420.5,352.5C 2422.48,359.42 2421.31,365.754 2417,371.5C 2414.08,374.693 2410.92,377.526 2407.5,380C 2421.54,410.628 2435.88,441.128 2450.5,471.5C 2480.58,477.202 2510.92,481.369 2541.5,484C 2565.88,484.893 2590.21,484.226 2614.5,482C 2615.74,478.218 2616.91,474.385 2618,470.5C 2618.47,469.069 2619.3,467.903 2620.5,467C 2637.3,461.788 2653.97,456.288 2670.5,450.5C 2670.72,446.796 2670.89,443.129 2671,439.5C 2651.78,448.344 2631.62,452.177 2610.5,451C 2583.12,445.755 2573.12,429.588 2580.5,402.5C 2573.94,403.081 2567.61,402.248 2561.5,400C 2559.67,398.833 2558.17,397.333 2557,395.5C 2555.94,390.577 2555.11,385.577 2554.5,380.5C 2548.36,376.899 2544.7,371.566 2543.5,364.5C 2545.63,357.841 2545.8,351.174 2544,344.5C 2513.9,352.401 2504.9,342.068 2517,313.5C 2527.28,297.559 2537.94,281.893 2549,266.5C 2553.47,259.229 2557.14,251.562 2560,243.5C 2562.61,229.965 2564.11,216.298 2564.5,202.5C 2564.17,185.997 2557.17,173.163 2543.5,164C 2525.59,153.587 2506.26,147.587 2485.5,146C 2473.48,145.301 2461.48,145.467 2449.5,146.5C 2450.49,166.343 2441.16,175.51 2421.5,174C 2405.71,165.966 2402.54,154.466 2412,139.5C 2419.02,132.883 2427.19,130.883 2436.5,133.5C 2450.33,123.087 2465.66,115.587 2482.5,111C 2504.64,105.318 2527.14,102.485 2550,102.5C 2564.5,103.333 2579,103.5 2593.5,103C 2600.88,101.951 2605.38,97.7845 2607,90.5C 2609.5,79.3123 2607.5,68.9789 2601,59.5C 2597.53,55.0332 2593.7,50.8666 2589.5,47C 2587.02,46.7605 2584.86,47.5938 2583,49.5C 2586.31,65.714 2580.14,76.5473 2564.5,82C 2546.73,84.4482 2536.73,76.7816 2534.5,59C 2535.18,48.6667 2540.18,41.3333 2549.5,37C 2553.8,36.036 2558.13,35.2026 2562.5,34.5C 2567.87,20.5656 2576.87,9.73232 2589.5,2C 2592.95,1.11534 2596.29,0.282003 2599.5,-0.5 Z M 2627.5,190.5 C 2644.84,190.333 2662.17,190.5 2679.5,191C 2690.69,191.607 2701.69,193.273 2712.5,196C 2716.43,202.2 2718.26,209.034 2718,216.5C 2718.94,233.05 2718.44,249.55 2716.5,266C 2716.83,267.5 2717.17,269 2717.5,270.5C 2726.88,272.009 2736.21,273.843 2745.5,276C 2746.83,278.667 2748.17,281.333 2749.5,284C 2751.57,284.536 2753.4,284.036 2755,282.5C 2756.11,272.451 2760.27,263.951 2767.5,257C 2776.98,248.657 2784.48,250.157 2790,261.5C 2792.71,267.05 2793.05,272.716 2791,278.5C 2785.94,288.959 2780.6,299.292 2775,309.5C 2773.97,313.608 2772.64,317.608 2771,321.5C 2768.65,326.426 2764.81,328.26 2759.5,327C 2756.21,323.553 2753.04,320.053 2750,316.5C 2745.56,324.829 2747.72,330.996 2756.5,335C 2763.83,337.986 2769.99,336.486 2775,330.5C 2777.8,324.601 2780.3,318.601 2782.5,312.5C 2788.19,323.734 2792.19,335.567 2794.5,348C 2794.45,353.39 2791.95,357.224 2787,359.5C 2784.98,363.435 2785.81,366.602 2789.5,369C 2794.13,369.528 2798.63,369.028 2803,367.5C 2805.26,387.222 2810.93,405.889 2820,423.5C 2822,426.167 2824,428.833 2826,431.5C 2820.32,475.174 2795.49,499.34 2751.5,504C 2733.61,505.793 2716.61,502.793 2700.5,495C 2687.36,486.737 2680.7,474.737 2680.5,459C 2681.17,450.762 2682.34,442.595 2684,434.5C 2684.23,432.22 2685.07,430.22 2686.5,428.5C 2706.33,419.498 2723.83,407.165 2739,391.5C 2745.32,384.521 2749.82,376.521 2752.5,367.5C 2752.36,365.893 2751.7,364.559 2750.5,363.5C 2720.44,404.051 2680.44,429.217 2630.5,439C 2618.36,441.107 2607.03,439.107 2596.5,433C 2594.04,430.592 2592.21,427.759 2591,424.5C 2590.52,417.766 2591.02,411.099 2592.5,404.5C 2592.91,397.468 2589.91,392.635 2583.5,390C 2578.52,390.328 2573.52,390.328 2568.5,390C 2567.83,389.333 2567.17,388.667 2566.5,388C 2567.41,386.301 2567.74,384.467 2567.5,382.5C 2575.11,383.013 2582.11,381.18 2588.5,377C 2589.97,371.187 2587.63,369.187 2581.5,371C 2571.95,376.622 2563.79,375.122 2557,366.5C 2557,359.833 2557,353.167 2557,346.5C 2556.66,340.974 2554.16,336.807 2549.5,334C 2541.44,333.689 2533.44,334.022 2525.5,335C 2524.09,334.632 2523.09,333.799 2522.5,332.5C 2524.44,326.608 2526.94,320.942 2530,315.5C 2543.91,296.683 2556.58,277.017 2568,256.5C 2570.27,251.36 2571.94,246.027 2573,240.5C 2574.46,226.805 2575.96,213.138 2577.5,199.5C 2582.87,197.154 2588.54,195.654 2594.5,195C 2605.63,193.401 2616.63,191.901 2627.5,190.5 Z M 2770.5,278.5 C 2773.7,278.513 2775.36,280.18 2775.5,283.5C 2773.83,290.496 2770.83,296.829 2766.5,302.5C 2766.17,302.167 2765.83,301.833 2765.5,301.5C 2769.47,295.614 2769.47,289.78 2765.5,284C 2766.68,281.657 2768.35,279.824 2770.5,278.5 Z M 2555.5,521.5 C 2574.5,521.333 2593.5,521.5 2612.5,522C 2613.74,529.501 2615.74,536.834 2618.5,544C 2609.86,550.66 2600.53,556.326 2590.5,561C 2572.26,567.97 2553.76,574.137 2535,579.5C 2533.6,578.773 2532.1,578.273 2530.5,578C 2533.65,570.683 2534.15,563.183 2532,555.5C 2528.46,551.542 2524.29,550.709 2519.5,553C 2511.9,557.635 2503.9,561.469 2495.5,564.5C 2488.8,552.268 2482.47,539.768 2476.5,527C 2502.94,524.496 2529.28,522.663 2555.5,521.5 Z"/></g>
<g><path style="opacity:1" fill="#fdfbfd" d="M 2596.5,11.5 C 2609.27,10.9418 2621.94,11.7751 2634.5,14C 2614.03,22.1546 2593.86,30.9879 2574,40.5C 2577.67,27.7985 2585.17,18.1318 2596.5,11.5 Z"/></g>
<g><path style="opacity:1" fill="#fdfbfd" d="M 2788.5,19.5 C 2803.76,19.9459 2815.09,26.7792 2822.5,40C 2818.22,41.4728 2814.22,43.4728 2810.5,46C 2804.33,51.5 2798.17,57 2792,62.5C 2792.68,56.0613 2793.52,49.5613 2794.5,43C 2794.29,34.6682 2792.29,26.8349 2788.5,19.5 Z"/></g>
<g><path style="opacity:1" fill="#ebcb35" d="M 2555.5,46.5 C 2564.52,45.8668 2570.19,49.8668 2572.5,58.5C 2569.57,68.8001 2562.9,72.6335 2552.5,70C 2546.46,65.3624 2544.96,59.5291 2548,52.5C 2550.11,49.8792 2552.61,47.8792 2555.5,46.5 Z"/></g>
<g><path style="opacity:1" fill="#ebcc34" d="M 2783.5,69.5 C 2799.06,70.2011 2804.56,77.8677 2800,92.5C 2795.07,99.05 2788.57,101.883 2780.5,101C 2770.68,95.5265 2768.18,87.6931 2773,77.5C 2775.94,73.9632 2779.44,71.2965 2783.5,69.5 Z"/></g>
<g><path style="opacity:1" fill="#ebcc34" d="M 3027.5,112.5 C 3039.36,112.858 3042.52,118.525 3037,129.5C 3033.21,134.153 3028.38,135.653 3022.5,134C 3018.8,130.604 3017.63,126.437 3019,121.5C 3021.36,117.973 3024.2,114.973 3027.5,112.5 Z"/></g>
<g><path style="opacity:1" fill="#eaca36" d="M 2425.5,143.5 C 2436.81,143.285 2440.31,148.285 2436,158.5C 2427.6,166.225 2421.77,164.725 2418.5,154C 2419.06,149.284 2421.39,145.784 2425.5,143.5 Z"/></g>
<g><path style="opacity:0.975" fill="#93067f" d="M 737.5,148.5 C 763.927,145.964 789.594,149.13 814.5,158C 844.199,172.925 854.033,196.425 844,228.5C 833.921,260.339 817.921,288.673 796,313.5C 783.833,327 771,339.833 757.5,352C 792.78,335.515 828.78,334.182 865.5,348C 906.157,367.113 929.991,398.946 937,443.5C 939.576,468.286 935.576,491.952 925,514.5C 911.689,540.484 894.522,563.651 873.5,584C 862.387,594.382 850.72,604.049 838.5,613C 819.5,626 800.5,639 781.5,652C 750.703,669.726 718.036,683.059 683.5,692C 656.625,698.792 630.958,695.792 606.5,683C 584.066,666.602 577.566,645.102 587,618.5C 591.069,606.211 598.236,596.044 608.5,588C 615.654,582.257 622.988,576.757 630.5,571.5C 640.855,608.352 664.855,630.519 702.5,638C 731.559,642.605 760.226,640.938 788.5,633C 810.808,623.027 827.641,607.194 839,585.5C 858.739,551.401 864.739,515.068 857,476.5C 846.136,439.31 824.303,410.477 791.5,390C 760.544,372.366 729.877,372.699 699.5,391C 732.003,361.494 757.836,326.994 777,287.5C 808.106,218.098 785.606,182.765 709.5,181.5C 668.391,183.4 631.391,196.566 598.5,221C 543.618,264.194 506.784,319.694 488,387.5C 486.247,388.627 484.413,389.627 482.5,390.5C 484.575,356.978 494.741,325.978 513,297.5C 533.992,264.506 560.492,236.673 592.5,214C 615.834,196.991 640.501,181.991 666.5,169C 689.256,158.566 712.923,151.732 737.5,148.5 Z"/></g>
<g><path style="opacity:1" fill="#ebcb35" d="M 2362.5,181.5 C 2369.09,181.186 2370.42,183.352 2366.5,188C 2360.74,188.418 2359.4,186.251 2362.5,181.5 Z"/></g>
<g><path style="opacity:0.886" fill="#93067f" d="M 2635.5,195.5 C 2644.63,193.628 2649.96,197.294 2651.5,206.5C 2650.02,210.707 2647.36,211.54 2643.5,209C 2642.46,207.082 2641.29,205.249 2640,203.5C 2635.93,205.234 2632.1,207.4 2628.5,210C 2622.14,216.699 2615.47,223.032 2608.5,229C 2603.4,232.034 2597.9,233.867 2592,234.5C 2587.35,234.694 2584.18,232.694 2582.5,228.5C 2582.98,227.522 2583.64,226.689 2584.5,226C 2591.2,226.251 2597.54,224.918 2603.5,222C 2610.8,215.698 2617.8,209.032 2624.5,202C 2628.1,199.539 2631.76,197.373 2635.5,195.5 Z"/></g>
<g><path style="opacity:1" fill="#eaca36" d="M 2435.5,212.5 C 2440.59,212.284 2441.59,214.118 2438.5,218C 2435.76,219.08 2434.1,218.246 2433.5,215.5C 2433.94,214.261 2434.61,213.261 2435.5,212.5 Z"/></g>
<g><path style="opacity:0.978" fill="#93067f" d="M 659.5,216.5 C 652.278,308.418 633.444,398.085 603,485.5C 587.359,520.142 567.693,552.142 544,581.5C 533,595.167 522,608.833 511,622.5C 496.993,638.512 481.16,652.345 463.5,664C 438.35,678.63 411.35,684.296 382.5,681C 354.868,675.373 344.368,658.873 351,631.5C 353.362,623.774 357.029,616.774 362,610.5C 369.089,602.573 376.922,595.573 385.5,589.5C 388.623,617.785 403.956,635.285 431.5,642C 460.281,647.859 482.781,638.692 499,614.5C 509.074,596.952 516.407,578.285 521,558.5C 525.156,542.209 529.156,525.875 533,509.5C 542.95,460.75 553.283,412.083 564,363.5C 570.401,334.958 580.735,307.958 595,282.5C 598.667,277.5 602.333,272.5 606,267.5C 623.729,250.268 641.562,233.268 659.5,216.5 Z"/></g>
<g><path style="opacity:0.901" fill="#93067f" d="M 2640.5,232.5 C 2647.93,233.101 2651.1,237.101 2650,244.5C 2648.06,246.978 2645.9,247.145 2643.5,245C 2642.85,243.391 2642.02,241.891 2641,240.5C 2641.55,245.423 2641.55,250.423 2641,255.5C 2638.64,262.517 2633.81,265.35 2626.5,264C 2623.4,262.561 2620.56,260.727 2618,258.5C 2611.92,261.557 2605.59,262.224 2599,260.5C 2598.28,258.888 2598.45,257.388 2599.5,256C 2603.77,254.97 2608.11,254.303 2612.5,254C 2614.95,253.275 2617.28,252.275 2619.5,251C 2624.45,246.054 2629.45,241.054 2634.5,236C 2636.43,234.541 2638.43,233.375 2640.5,232.5 Z"/></g>
<g><path style="opacity:0.861" fill="#93067f" d="M 2771.5,271.5 C 2778.1,272.681 2781.44,276.681 2781.5,283.5C 2781.18,286.956 2780.35,290.289 2779,293.5C 2775.08,300.835 2771.58,308.335 2768.5,316C 2767.17,316.667 2765.83,316.667 2764.5,316C 2762.49,313.159 2761.16,309.992 2760.5,306.5C 2756.85,305.474 2755.68,303.141 2757,299.5C 2762.73,296.583 2763.73,292.583 2760,287.5C 2759.18,272.836 2765.68,263.169 2779.5,258.5C 2785.87,260.568 2788.03,264.902 2786,271.5C 2784.33,274.167 2782.67,274.167 2781,271.5C 2780.5,269.527 2780.34,267.527 2780.5,265.5C 2776.44,265.897 2773.44,267.897 2771.5,271.5 Z M 2770.5,278.5 C 2768.35,279.824 2766.68,281.657 2765.5,284C 2769.47,289.78 2769.47,295.614 2765.5,301.5C 2765.83,301.833 2766.17,302.167 2766.5,302.5C 2770.83,296.829 2773.83,290.496 2775.5,283.5C 2775.36,280.18 2773.7,278.513 2770.5,278.5 Z"/></g>
<g><path style="opacity:1" fill="#e6c13b" d="M 2259.5,265.5 C 2264.98,265.481 2266.65,267.981 2264.5,273C 2260.64,275.54 2257.98,274.707 2256.5,270.5C 2257.09,268.577 2258.09,266.911 2259.5,265.5 Z"/></g>
<g><path style="opacity:1" fill="#fefdfe" d="M 2400.5,283.5 C 2402.2,283.34 2403.87,283.506 2405.5,284C 2415.46,293.621 2424.29,304.121 2432,315.5C 2433.13,317.725 2433.96,320.058 2434.5,322.5C 2434.37,324.601 2433.37,326.101 2431.5,327C 2417.34,324.985 2411.68,330.819 2414.5,344.5C 2411.63,345.208 2408.8,345.875 2406,346.5C 2405.33,348.167 2405.33,349.833 2406,351.5C 2413.04,354.34 2414.38,359.007 2410,365.5C 2401.96,373.972 2392.13,377.139 2380.5,375C 2367.66,371.33 2356.82,364.496 2348,354.5C 2347.33,351.167 2347.33,347.833 2348,344.5C 2355.05,322.457 2367.89,304.623 2386.5,291C 2391.1,288.202 2395.77,285.702 2400.5,283.5 Z"/></g>
<g><path style="opacity:1" fill="#991d85" d="M 2393.5,301.5 C 2400.14,301.64 2402.98,304.973 2402,311.5C 2395.83,318.544 2391.33,317.711 2388.5,309C 2388.78,305.556 2390.45,303.056 2393.5,301.5 Z"/></g>
<g><path style="opacity:1" fill="#ebcc34" d="M 2974.5,325.5 C 2987.7,325.543 2992.2,331.876 2988,344.5C 2980.18,352.872 2973.18,352.205 2967,342.5C 2965.18,334.813 2967.68,329.146 2974.5,325.5 Z"/></g>
<g><path style="opacity:0.941" fill="#151418" d="M 1032.5,328.5 C 1034.02,328.511 1035.18,329.177 1036,330.5C 1050.64,351.306 1065.47,371.973 1080.5,392.5C 1074.19,393.664 1067.86,393.831 1061.5,393C 1052.62,383.618 1043.29,374.785 1033.5,366.5C 1024.32,374.849 1015.65,383.682 1007.5,393C 1001.14,393.831 994.807,393.664 988.5,392.5C 1003.61,371.406 1018.27,350.072 1032.5,328.5 Z"/></g>
<g><path style="opacity:1" fill="#e9c837" d="M 2257.5,339.5 C 2263.59,339.286 2265.09,341.953 2262,347.5C 2258.13,350.485 2255.97,349.485 2255.5,344.5C 2255.44,342.486 2256.1,340.819 2257.5,339.5 Z"/></g>
<g><path style="opacity:0.963" fill="#151418" d="M -0.5,406.5 C 8.16667,406.5 16.8333,406.5 25.5,406.5C 25.5,473.5 25.5,540.5 25.5,607.5C 49.8333,607.5 74.1667,607.5 98.5,607.5C 98.5,615.5 98.5,623.5 98.5,631.5C 65.5,631.5 32.5,631.5 -0.5,631.5C -0.5,556.5 -0.5,481.5 -0.5,406.5 Z"/></g>
<g><path style="opacity:0.973" fill="#151418" d="M 1022.5,407.5 C 1030.53,407.169 1038.53,407.502 1046.5,408.5C 1079.37,482.408 1112.37,556.241 1145.5,630C 1133.92,630.82 1122.42,630.654 1111,629.5C 1101.5,608.5 1092,587.5 1082.5,566.5C 1051.17,565.167 1019.83,565.167 988.5,566.5C 979.569,587.459 970.736,608.459 962,629.5C 950.576,630.654 939.076,630.82 927.5,630C 959.461,555.949 991.127,481.783 1022.5,407.5 Z M 1033.5,458.5 C 1045.39,483.957 1057.06,509.624 1068.5,535.5C 1046.17,536.666 1023.84,536.833 1001.5,536C 1012.85,510.442 1023.52,484.609 1033.5,458.5 Z"/></g>
<g><path style="opacity:0.973" fill="#151418" d="M 1391.5,407.5 C 1399.75,407.184 1407.92,407.518 1416,408.5C 1448.83,482.167 1481.67,555.833 1514.5,629.5C 1503.17,630.833 1491.83,630.833 1480.5,629.5C 1470.96,608.258 1461.3,587.092 1451.5,566C 1420.5,565.333 1389.5,565.333 1358.5,566C 1349.08,587.345 1340.08,608.845 1331.5,630.5C 1320.17,630.5 1308.83,630.5 1297.5,630.5C 1328.83,556.167 1360.17,481.833 1391.5,407.5 Z M 1402.5,459.5 C 1404.34,460.122 1405.5,461.456 1406,463.5C 1416.7,487.741 1427.54,511.908 1438.5,536C 1416.16,536.833 1393.83,536.666 1371.5,535.5C 1382.23,510.303 1392.56,484.97 1402.5,459.5 Z"/></g>
<g><path style="opacity:0.974" fill="#151418" d="M 1129.5,408.5 C 1191.5,408.5 1253.5,408.5 1315.5,408.5C 1315.5,418.167 1315.5,427.833 1315.5,437.5C 1289.83,437.5 1264.17,437.5 1238.5,437.5C 1238.5,501.833 1238.5,566.167 1238.5,630.5C 1227.5,630.5 1216.5,630.5 1205.5,630.5C 1205.5,566.167 1205.5,501.833 1205.5,437.5C 1180.17,437.5 1154.83,437.5 1129.5,437.5C 1129.5,427.833 1129.5,418.167 1129.5,408.5 Z"/></g>
<g><path style="opacity:0.968" fill="#151418" d="M 1538.5,408.5 C 1560.17,408.333 1581.84,408.5 1603.5,409C 1650.18,412.991 1671.34,438.158 1667,484.5C 1662.55,504.111 1651.05,517.778 1632.5,525.5C 1643.23,533.727 1652.39,543.393 1660,554.5C 1675.66,580.484 1692.49,605.65 1710.5,630C 1697.5,630.667 1684.5,630.667 1671.5,630C 1657.48,610.974 1644.65,591.141 1633,570.5C 1624.54,558.374 1614.37,547.874 1602.5,539C 1592.54,535.146 1582.21,533.646 1571.5,534.5C 1571.5,566.5 1571.5,598.5 1571.5,630.5C 1560.5,630.5 1549.5,630.5 1538.5,630.5C 1538.5,556.5 1538.5,482.5 1538.5,408.5 Z M 1571.5,436.5 C 1582.2,436.305 1592.87,436.805 1603.5,438C 1622.8,440.629 1633.13,451.629 1634.5,471C 1633.44,489.06 1624.1,500.06 1606.5,504C 1594.87,505.268 1583.2,505.768 1571.5,505.5C 1571.5,482.5 1571.5,459.5 1571.5,436.5 Z"/></g>
<g><path style="opacity:0.968" fill="#151418" d="M 1734.5,408.5 C 1760.56,407.929 1786.56,408.763 1812.5,411C 1858.76,418.045 1888.93,443.879 1903,488.5C 1915.08,541.469 1898.91,583.302 1854.5,614C 1841.7,621.376 1828.04,626.376 1813.5,629C 1787.19,630.403 1760.86,630.903 1734.5,630.5C 1734.5,556.5 1734.5,482.5 1734.5,408.5 Z M 1767.5,437.5 C 1782.94,437.496 1798.27,438.663 1813.5,441C 1858.7,455.905 1878.2,487.071 1872,534.5C 1864.62,569.549 1843.45,591.049 1808.5,599C 1794.91,601.025 1781.24,601.858 1767.5,601.5C 1767.5,546.833 1767.5,492.167 1767.5,437.5 Z"/></g>
<g><path style="opacity:0.975" fill="#151418" d="M 1945.5,408.5 C 1987.83,408.5 2030.17,408.5 2072.5,408.5C 2072.5,418.167 2072.5,427.833 2072.5,437.5C 2041.17,437.5 2009.83,437.5 1978.5,437.5C 1978.5,459.833 1978.5,482.167 1978.5,504.5C 2008.5,504.5 2038.5,504.5 2068.5,504.5C 2068.5,514.167 2068.5,523.833 2068.5,533.5C 2038.5,533.5 2008.5,533.5 1978.5,533.5C 1978.5,556.167 1978.5,578.833 1978.5,601.5C 2010.83,601.5 2043.17,601.5 2075.5,601.5C 2075.5,611.167 2075.5,620.833 2075.5,630.5C 2032.17,630.5 1988.83,630.5 1945.5,630.5C 1945.5,556.5 1945.5,482.5 1945.5,408.5 Z"/></g>
<g><path style="opacity:1" fill="#e9c836" d="M 2303.5,409.5 C 2308.66,409.107 2310.33,411.273 2308.5,416C 2303.82,418.736 2301.32,417.569 2301,412.5C 2302.04,411.627 2302.88,410.627 2303.5,409.5 Z"/></g>
<g><path style="opacity:0.962" fill="#151418" d="M 178.5,456.5 C 185.09,456.189 191.59,456.522 198,457.5C 223.979,515.29 249.812,573.123 275.5,631C 266.482,631.832 257.482,631.665 248.5,630.5C 240.599,614.036 233.266,597.369 226.5,580.5C 201.831,580.333 177.164,580.5 152.5,581C 145.371,597.427 138.371,613.927 131.5,630.5C 122.5,631.833 113.5,631.833 104.5,630.5C 129.368,572.558 154.034,514.558 178.5,456.5 Z M 187.5,496.5 C 197.292,516.423 206.292,536.756 214.5,557.5C 197.163,557.667 179.83,557.5 162.5,557C 171.251,536.998 179.585,516.832 187.5,496.5 Z"/></g>
<g><path style="opacity:1" fill="#fefdfe" d="M 2895.5,431.5 C 2896.81,433.571 2897.48,436.071 2897.5,439C 2896.95,459.42 2892.45,478.92 2884,497.5C 2872.47,523.066 2856.64,545.566 2836.5,565C 2819.11,579.69 2799.11,589.024 2776.5,593C 2752.04,599.287 2727.7,598.954 2703.5,592C 2677.55,585.449 2655.38,572.616 2637,553.5C 2621.13,530.137 2617.13,504.804 2625,477.5C 2625.89,476.919 2626.89,476.585 2628,476.5C 2644.02,479.237 2659.85,482.57 2675.5,486.5C 2662.86,504.972 2650.03,523.305 2637,541.5C 2635.71,543.055 2635.04,544.721 2635,546.5C 2658.76,534.705 2682.59,523.039 2706.5,511.5C 2708.35,538.167 2710.18,564.833 2712,591.5C 2725.5,566.5 2739,541.5 2752.5,516.5C 2766.51,539.841 2780.01,563.508 2793,587.5C 2794.18,559.167 2795.34,530.833 2796.5,502.5C 2816.8,514.301 2836.96,526.301 2857,538.5C 2857.32,537.092 2856.98,535.759 2856,534.5C 2844.5,516.333 2833,498.167 2821.5,480C 2844.13,478.744 2866.8,478.077 2889.5,478C 2871.28,469.814 2852.95,461.814 2834.5,454C 2854.89,446.463 2875.22,438.963 2895.5,431.5 Z"/></g>
<g><path style="opacity:1" fill="#fdfafc" d="M 2520.5,565.5 C 2521.61,566.946 2521.78,568.613 2521,570.5C 2520.56,579.9 2515.89,585.9 2507,588.5C 2505.78,587.728 2504.78,586.728 2504,585.5C 2502.88,582.145 2501.38,578.978 2499.5,576C 2506.79,572.967 2513.79,569.467 2520.5,565.5 Z"/></g>
<g><path style="opacity:1" fill="#fefdfe" d="M 2467.5,582.5 C 2468.38,582.369 2469.04,582.702 2469.5,583.5C 2472.31,588.954 2474.98,594.454 2477.5,600C 2471.94,602.894 2466.94,606.561 2462.5,611C 2459.1,612.916 2455.43,613.916 2451.5,614C 2449.4,615.733 2449.07,617.733 2450.5,620C 2453.83,620.667 2457.17,620.667 2460.5,620C 2467.38,616.448 2473.72,612.115 2479.5,607C 2495.42,601.359 2511.26,595.526 2527,589.5C 2528.71,589.439 2530.04,590.106 2531,591.5C 2532.11,596.611 2531.11,601.278 2528,605.5C 2522.3,610.865 2516.97,616.531 2512,622.5C 2509.59,625.797 2509.09,629.297 2510.5,633C 2511.83,633.667 2513.17,633.667 2514.5,633C 2516.7,630.072 2518.53,626.905 2520,623.5C 2525.67,618.167 2531.33,612.833 2537,607.5C 2540.77,612.364 2541.44,617.697 2539,623.5C 2533.37,630.794 2527.37,637.794 2521,644.5C 2519.78,647.211 2518.95,650.044 2518.5,653C 2519.06,656.571 2521.06,658.238 2524.5,658C 2525.93,654.611 2527.1,651.111 2528,647.5C 2531.41,642.711 2535.58,638.711 2540.5,635.5C 2541.79,641.206 2541.63,646.873 2540,652.5C 2537.41,658.016 2534.08,663.016 2530,667.5C 2527.6,671.623 2525.77,675.956 2524.5,680.5C 2524.51,684.609 2526.51,686.109 2530.5,685C 2532.94,676.557 2537.1,669.057 2543,662.5C 2545.93,666.241 2546.26,670.241 2544,674.5C 2538.99,685.18 2531.49,693.68 2521.5,700C 2509.49,708.344 2496.82,715.677 2483.5,722C 2472.82,725.335 2462.16,728.669 2451.5,732C 2449.39,733.141 2447.56,734.641 2446,736.5C 2442.81,743.706 2438.98,750.539 2434.5,757C 2430.74,759.156 2426.74,759.823 2422.5,759C 2417.54,756.853 2412.87,754.186 2408.5,751C 2403.67,746.167 2398.83,741.333 2394,736.5C 2388.83,727.837 2386.83,718.504 2388,708.5C 2403.6,692.636 2414.6,673.97 2421,652.5C 2423.67,640.5 2426.33,628.5 2429,616.5C 2431.61,605.083 2437.78,596.249 2447.5,590C 2454.02,586.777 2460.68,584.277 2467.5,582.5 Z"/></g>
<g><path style="opacity:1" fill="#eccd34" d="M 2374.5,667.5 C 2383.57,667.103 2392.23,668.603 2400.5,672C 2398.75,675.499 2396.75,678.832 2394.5,682C 2384.48,684.685 2378.65,691.185 2377,701.5C 2374.64,715.689 2376.97,729.022 2384,741.5C 2392.73,753.236 2403.56,762.403 2416.5,769C 2428.94,773.074 2439.11,769.908 2447,759.5C 2449.98,755.214 2452.14,750.547 2453.5,745.5C 2454,744.479 2454.67,744.312 2455.5,745C 2466.34,788.819 2450,803.819 2406.5,790C 2366.69,772.554 2347.52,742.054 2349,698.5C 2350.95,682.502 2359.45,672.169 2374.5,667.5 Z"/></g>
<g><path style="opacity:0.948" fill="#93067f" d="M 1781.5,680.5 C 1793.6,679.414 1805.27,681.081 1816.5,685.5C 1816.67,692.175 1816.5,698.842 1816,705.5C 1806.49,698.831 1795.99,696.331 1784.5,698C 1768.5,704.666 1762.33,716.499 1766,733.5C 1770.88,746.525 1780.38,753.192 1794.5,753.5C 1802.54,752.906 1810.21,750.906 1817.5,747.5C 1818.83,753.5 1818.83,759.5 1817.5,765.5C 1805.46,769.296 1793.12,770.462 1780.5,769C 1757.56,763.625 1746.22,749.125 1746.5,725.5C 1746.66,701.356 1758.33,686.356 1781.5,680.5 Z"/></g>
<g><path style="opacity:0.945" fill="#93067f" d="M 1983.5,680.5 C 1997.42,678.577 2008.42,683.243 2016.5,694.5C 2026.36,683.238 2038.69,678.738 2053.5,681C 2066.15,684.76 2073.32,693.26 2075,706.5C 2075.5,727.164 2075.67,747.831 2075.5,768.5C 2069.5,768.5 2063.5,768.5 2057.5,768.5C 2057.94,748.454 2057.44,728.454 2056,708.5C 2054.05,700.389 2048.89,696.056 2040.5,695.5C 2032.83,696.587 2026.33,699.92 2021,705.5C 2020.5,726.497 2020.33,747.497 2020.5,768.5C 2014.17,768.5 2007.83,768.5 2001.5,768.5C 2001.94,747.455 2001.44,726.455 2000,705.5C 1997.35,698.674 1992.35,695.341 1985,695.5C 1977.01,696.15 1970.34,699.483 1965,705.5C 1964.5,726.497 1964.33,747.497 1964.5,768.5C 1958.17,768.5 1951.83,768.5 1945.5,768.5C 1945.5,739.833 1945.5,711.167 1945.5,682.5C 1951.83,682.5 1958.17,682.5 1964.5,682.5C 1964.34,685.518 1964.5,688.518 1965,691.5C 1970.72,686.899 1976.88,683.232 1983.5,680.5 Z"/></g>
<g><path style="opacity:0.947" fill="#93067f" d="M 1875.5,681.5 C 1896.96,679.976 1913.12,688.31 1924,706.5C 1934.01,734.155 1925.84,754.322 1899.5,767C 1876.89,774.306 1857.39,769.473 1841,752.5C 1829.71,734.848 1829.71,717.182 1841,699.5C 1850.16,688.837 1861.66,682.837 1875.5,681.5 Z M 1872.5,698.5 C 1893.39,696.088 1905.72,705.088 1909.5,725.5C 1907.74,742.923 1898.08,752.257 1880.5,753.5C 1855.37,749.562 1846.87,735.562 1855,711.5C 1859.39,705.071 1865.23,700.738 1872.5,698.5 Z"/></g>
<g><path style="opacity:0.921" fill="#93067f" d="M 1714.5,746.5 C 1726.38,746.213 1731.22,751.88 1729,763.5C 1727.83,766 1726,767.833 1723.5,769C 1710.18,771.956 1704.35,766.789 1706,753.5C 1707.85,749.843 1710.68,747.51 1714.5,746.5 Z"/></g>
</svg>
